<svg width="48" height="41" viewBox="0 0 48 41" fill="none" xmlns="http://www.w3.org/2000/svg">
<path d="M21.1688 39.8792L20.9344 39.6636L4.50937 24.4105C1.63125 21.7386 0 17.9886 0 14.0605V13.7511C0 7.15109 4.6875 1.48859 11.175 0.251094C14.8687 -0.461406 18.6469 0.391719 21.6562 2.51047C22.5 3.11047 23.2875 3.80422 24 4.60109C24.3937 4.15109 24.8156 3.73859 25.2656 3.35422C25.6125 3.05422 25.9688 2.77297 26.3438 2.51047C29.3531 0.391719 33.1312 -0.461406 36.825 0.241719C43.3125 1.47922 48 7.15109 48 13.7511V14.0605C48 17.9886 46.3687 21.7386 43.4906 24.4105L27.0656 39.6636L26.8313 39.8792C26.0625 40.5917 25.05 40.9948 24 40.9948C22.95 40.9948 21.9375 40.6011 21.1688 39.8792ZM22.4156 9.57922C22.3781 9.55109 22.35 9.51359 22.3219 9.47609L20.6531 7.60109L20.6437 7.59172C18.4781 5.16359 15.2062 4.05734 12.0187 4.66672C7.65 5.50109 4.5 9.30734 4.5 13.7511V14.0605C4.5 16.7323 5.61563 19.2917 7.575 21.1105L24 36.3636L40.425 21.1105C42.3844 19.2917 43.5 16.7323 43.5 14.0605V13.7511C43.5 9.31672 40.35 5.50109 35.9906 4.66672C32.8031 4.05734 29.5219 5.17297 27.3656 7.59172C27.3656 7.59172 27.3656 7.59172 27.3562 7.60109C27.3469 7.61047 27.3563 7.60109 27.3469 7.61047L25.6781 9.48547C25.65 9.52297 25.6125 9.5511 25.5844 9.58859C25.1625 10.0105 24.5906 10.2448 24 10.2448C23.4094 10.2448 22.8375 10.0105 22.4156 9.58859V9.57922Z" fill="#7A9D72"/>
</svg>
