<svg width="54" height="48" viewBox="0 0 54 48" fill="none" xmlns="http://www.w3.org/2000/svg">
<path d="M53.025 3.39377C53.6344 3.81564 54 4.50939 54 5.25002V36.75C54 37.6875 53.4188 38.5219 52.5469 38.85L36.7969 44.85C36.3094 45.0375 35.775 45.0469 35.2875 44.8781L18.0469 39.1406L3.04688 44.8594C2.35313 45.1219 1.575 45.0281 0.965625 44.6063C0.35625 44.1844 0 43.4906 0 42.75V11.25C0 10.3125 0.571875 9.47814 1.45312 9.15002L17.2031 3.15002C17.6906 2.96252 18.225 2.95314 18.7125 3.12189L35.9531 8.85939L50.9531 3.14064C51.6469 2.87814 52.425 2.97189 53.0344 3.39377H53.025ZM4.5 12.7969V39.4781L15.75 35.1938V8.51252L4.5 12.7969ZM33.75 39.6281V12.8719L20.25 8.37189V35.1281L33.75 39.6281ZM38.25 39.4875L49.5 35.2031V8.52189L38.25 12.7969V39.4781V39.4875Z" fill="#7A9D72"/>
</svg>
