<svg width="60" height="48" viewBox="0 0 60 48" fill="none" xmlns="http://www.w3.org/2000/svg">
<path d="M52.5 15C54.4891 15 56.3968 14.2098 57.8033 12.8033C59.2098 11.3968 60 9.48912 60 7.5C60 5.51088 59.2098 3.60322 57.8033 2.1967C56.3968 0.790176 54.4891 0 52.5 0C50.5109 0 48.6032 0.790176 47.1967 2.1967C45.7902 3.60322 45 5.51088 45 7.5C45 9.48912 45.7902 11.3968 47.1967 12.8033C48.6032 14.2098 50.5109 15 52.5 15ZM5.24063 48H35.7281H42.7594H54.2719C57.4406 48 60 45.4312 60 42.2719C60 41.2219 59.7094 40.1906 59.1656 39.2906L46.7906 19.0125C46.4062 18.3844 45.7313 18 45 18C44.2687 18 43.5938 18.3844 43.2094 19.0031L38.6906 26.4094L26.8875 7.59375C26.2687 6.6 25.1719 6 24 6C22.8281 6 21.7406 6.6 21.1125 7.59375L0.80625 39.975C0.28125 40.8094 0 41.775 0 42.7594C0 45.6562 2.34375 48 5.24063 48Z" fill="#7A9D72"/>
</svg>
