<svg width="48" height="48" viewBox="0 0 48 48" fill="none" xmlns="http://www.w3.org/2000/svg">
<path d="M24 3C25.1719 3 26.2594 3.6 26.8875 4.59375L47.1937 36.975C47.7188 37.8094 48 38.775 48 39.7594C48 42.6562 45.6562 45 42.7594 45H5.24063C2.34375 45 0 42.6562 0 39.7594C0 38.775 0.28125 37.8094 0.80625 36.975L21.1125 4.59375C21.7312 3.6 22.8281 3 24 3ZM30.0938 21L24 11.2875L16.5844 23.1094L18.3 25.3969C18.9 26.1937 20.1 26.1937 20.7 25.3969L23.1 22.2C23.6625 21.4406 24.5531 21 25.5 21H30.0938Z" fill="#7A9D72"/>
</svg>
