<svg width="36" height="48" viewBox="0 0 36 48" fill="none" xmlns="http://www.w3.org/2000/svg">
<g clip-path="url(#clip0_216_393)">
<path d="M18.0001 4.5C18.0001 3.30653 18.4742 2.16193 19.3181 1.31802C20.162 0.474106 21.3066 0 22.5001 0C23.6935 0 24.8381 0.474106 25.6821 1.31802C26.526 2.16193 27.0001 3.30653 27.0001 4.5C27.0001 5.69347 26.526 6.83807 25.6821 7.68198C24.8381 8.52589 23.6935 9 22.5001 9C21.3066 9 20.162 8.52589 19.3181 7.68198C18.4742 6.83807 18.0001 5.69347 18.0001 4.5ZM22.8094 21.6281L21.0188 28.7812L25.6782 33.4406C26.5219 34.2844 27.0001 35.4281 27.0001 36.6188V45C27.0001 46.6594 25.6594 48 24.0001 48C22.3407 48 21.0001 46.6594 21.0001 45V37.2469L14.0719 30.3187C12.5907 28.8375 11.9907 26.7 12.4876 24.6656L14.4001 16.7906C15.1782 13.5938 18.4032 11.6437 21.5907 12.4406C23.3719 12.8906 24.9282 13.9781 25.9407 15.5062L28.6032 19.5H31.5001V17.25C31.5001 16.0031 32.5032 15 33.7501 15C34.9969 15 36.0001 16.0031 36.0001 17.25V22.4813C36.0001 22.4906 36.0001 22.5 36.0001 22.5V22.5187V45.75C36.0001 46.9969 34.9969 48 33.7501 48C32.5032 48 31.5001 46.9969 31.5001 45.75V25.5H27.8063C26.3063 25.5 24.9001 24.75 24.0657 23.4938L22.8188 21.6188L22.8094 21.6281ZM7.60319 44.2406L10.9969 31.3125C11.2782 31.7062 11.5969 32.0812 11.9438 32.4281L15.8719 36.3562L13.3969 45.7594C12.9751 47.3625 11.3344 48.3187 9.73132 47.8969C8.12819 47.475 7.17194 45.8344 7.59382 44.2312L7.60319 44.2406ZM12.8063 11.8031L9.50632 24.9844C9.22507 26.1187 8.10944 26.85 6.95632 26.6625L2.46569 25.9125C1.15319 25.6969 0.31882 24.3844 0.665695 23.1L2.99069 14.5312C3.88132 11.2688 6.84382 9 10.2282 9H10.6219C12.0844 9 13.1626 10.3781 12.8063 11.7938V11.8031Z" fill="#7A9D72"/>
</g>
<defs>
<clipPath id="clip0_216_393">
<rect width="36" height="48" fill="white"/>
</clipPath>
</defs>
</svg>
