<svg width="48" height="48" viewBox="0 0 48 48" fill="none" xmlns="http://www.w3.org/2000/svg">
<g clip-path="url(#clip0_202_306)">
<path d="M48 9C48 13.7063 42.4594 20.7281 40.0687 23.5312C39.7125 23.9438 39.1875 24.1031 38.7094 24H30C28.3406 24 27 25.3406 27 27C27 28.6594 28.3406 30 30 30H39C43.9688 30 48 34.0312 48 39C48 43.9688 43.9688 48 39 48H13.0875C13.9031 47.0719 14.8969 45.8813 15.9 44.55C16.4906 43.7625 17.1 42.9 17.6813 42H39C40.6594 42 42 40.6594 42 39C42 37.3406 40.6594 36 39 36H30C25.0312 36 21 31.9688 21 27C21 22.0312 25.0312 18 30 18H33.7312C31.7625 15.0469 30 11.6531 30 9C30 4.03125 34.0312 0 39 0C43.9688 0 48 4.03125 48 9ZM10.9781 45.8531C10.6219 46.2563 10.3031 46.6125 10.0312 46.9125L9.8625 47.1L9.84375 47.0813C9.28125 47.5125 8.475 47.4562 7.96875 46.9125C5.60625 44.3438 0 37.7344 0 33C0 28.0312 4.03125 24 9 24C13.9688 24 18 28.0312 18 33C18 35.8125 16.0219 39.2812 13.9219 42.1781C12.9187 43.5562 11.8875 44.8031 11.0344 45.7875L10.9781 45.8531ZM12 33C12 32.2043 11.6839 31.4413 11.1213 30.8787C10.5587 30.3161 9.79565 30 9 30C8.20435 30 7.44129 30.3161 6.87868 30.8787C6.31607 31.4413 6 32.2043 6 33C6 33.7957 6.31607 34.5587 6.87868 35.1213C7.44129 35.6839 8.20435 36 9 36C9.79565 36 10.5587 35.6839 11.1213 35.1213C11.6839 34.5587 12 33.7957 12 33ZM39 12C39.7957 12 40.5587 11.6839 41.1213 11.1213C41.6839 10.5587 42 9.79565 42 9C42 8.20435 41.6839 7.44129 41.1213 6.87868C40.5587 6.31607 39.7957 6 39 6C38.2043 6 37.4413 6.31607 36.8787 6.87868C36.3161 7.44129 36 8.20435 36 9C36 9.79565 36.3161 10.5587 36.8787 11.1213C37.4413 11.6839 38.2043 12 39 12Z" fill="#7A9D72"/>
</g>
<defs>
<clipPath id="clip0_202_306">
<rect width="48" height="48" fill="white"/>
</clipPath>
</defs>
</svg>
